<svg width="108" height="20" viewBox="0 0 108 20" fill="none" xmlns="http://www.w3.org/2000/svg">
<g id="SquareUp">
<path d="M6.60681 0C9.63767 0 11.9331 1.64914 12.5125 4.30114L9.48167 4.92514C9.25881 3.52114 8.0331 2.60743 6.53995 2.60743C5.02453 2.60743 4.11081 3.45429 4.11081 4.45714C4.11081 5.21486 4.4451 5.74971 5.60395 5.97257L8.8131 6.61886C11.2422 7.13143 12.7354 8.58 12.7354 10.8977C12.7354 13.7949 10.3508 15.6 6.80738 15.6C3.68738 15.6 0.94624 14.1514 0.567383 11.1651L3.75424 10.5189C4.15538 12.2126 5.40338 12.948 7.0971 12.948C8.83538 12.948 9.7491 12.1234 9.7491 11.0537C9.7491 10.2069 9.34795 9.69429 8.01081 9.42686L4.84624 8.82514C3.06338 8.44629 0.923954 7.46572 0.923954 4.54629C0.923954 1.872 3.10795 0 6.60681 0Z" fill="white"/>
<path d="M26.5887 4.14514V19.0543H23.647V14.3966C22.711 15.1543 21.4853 15.6 19.9699 15.6C17.1396 15.6 14.5099 13.2154 14.5099 9.71657C14.5099 6.21771 17.1396 3.81086 19.9699 3.81086C21.4853 3.81086 22.711 4.25657 23.647 5.03657V4.14514H26.5887ZM20.4825 13.0371C22.0647 13.0371 23.647 11.7669 23.647 9.71657C23.647 7.66629 22.0647 6.37371 20.4825 6.37371C18.6996 6.37371 17.3625 7.66629 17.3625 9.71657C17.3625 11.7669 18.6996 13.0371 20.4825 13.0371Z" fill="white"/>
<path d="M40.199 4.14514V15.2657H37.2573V14.2629C36.3882 15.132 35.2293 15.6 33.7585 15.6C31.0842 15.6 29.3013 13.6834 29.3013 10.92V4.14514H32.243V10.296C32.243 11.856 33.1345 12.9034 34.4939 12.9034C36.1653 12.9034 37.2573 11.7891 37.2573 9.07029V4.14514H40.199Z" fill="white"/>
<path d="M54.5112 4.14514V15.2657H51.5695V14.3966C50.6335 15.1543 49.4077 15.6 47.8923 15.6C45.062 15.6 42.4323 13.2154 42.4323 9.71657C42.4323 6.21771 45.062 3.81086 47.8923 3.81086C49.4077 3.81086 50.6335 4.25657 51.5695 5.03657V4.14514H54.5112ZM48.4049 13.0371C49.9872 13.0371 51.5695 11.7669 51.5695 9.71657C51.5695 7.66629 49.9872 6.37371 48.4049 6.37371C46.622 6.37371 45.2849 7.66629 45.2849 9.71657C45.2849 11.7669 46.622 13.0371 48.4049 13.0371Z" fill="white"/>
<path d="M64.5532 3.98914C64.8429 3.98914 65.0657 3.98914 65.3332 4.07829L65.1772 6.90857H64.5309C61.812 6.90857 60.564 8.58 60.564 11.6777V15.2657H57.6223V4.14514H60.564V6.17314C61.4554 4.88057 62.748 3.98914 64.5532 3.98914Z" fill="white"/>
<path d="M77.5642 9.49372V10.4966H69.0956C69.3853 12.1011 70.5219 13.0817 71.8813 13.0817C72.7505 13.0817 73.8425 12.9703 74.6448 11.6109L77.2745 12.168C76.2939 14.4857 74.3105 15.6 71.8813 15.6C68.739 15.6 66.1762 13.2154 66.1762 9.71657C66.1762 6.21771 68.739 3.81086 71.9259 3.81086C74.8899 3.81086 77.4528 6.10629 77.5642 9.49372ZM71.9259 6.37371C70.8116 6.37371 69.5413 7.04229 69.1848 8.424H74.5556C74.1768 6.99771 73.107 6.37371 71.9259 6.37371Z" fill="white"/>
<path d="M92.6581 0.334287V8.58C92.6581 12.7697 90.0952 15.6 86.2398 15.6C82.2952 15.6 79.6655 12.7697 79.6655 8.58V0.334287H82.6963V8.58C82.6963 11.076 84.1003 12.7029 86.2398 12.7029C88.2678 12.7029 89.6272 11.076 89.6272 8.58V0.334287H92.6581Z" fill="white"/>
<path d="M102.262 3.81086C105.092 3.81086 107.722 6.21771 107.722 9.71657C107.722 13.2154 105.092 15.6 102.262 15.6C100.746 15.6 99.5207 15.1543 98.5847 14.3966V19.0543H95.6429V4.14514H98.5847V5.03657C99.5207 4.25657 100.746 3.81086 102.262 3.81086ZM101.749 13.0371C103.532 13.0371 104.869 11.7669 104.869 9.71657C104.869 7.66629 103.532 6.37371 101.749 6.37371C100.167 6.37371 98.5847 7.66629 98.5847 9.71657C98.5847 11.7669 100.167 13.0371 101.749 13.0371Z" fill="white"/>
</g>
</svg>
